<?xml version="1.0" standalone="no"?>
<!-- Creator: fig2dev Version 3.2.6a WinFIG version 3 (2018-06-22) by Andreas Schmidt -->
<!-- CreationDate: 2019-05-13 10:52:56 -->
<!-- Magnification: 1 -->
<svg	xmlns="http://www.w3.org/2000/svg"
	xmlns:xlink="http://www.w3.org/1999/xlink"
	width="792pt" height="612pt"
	viewBox="3035 3058 5437 1732">
<desc> Created by WinFIG version 7.5 </desc>
<desc> METADATA <version>1.0</version> </desc>
<g fill="none">
<!-- Line -->
<!--  METADATA <id>8</id>  -->
<polyline points=" 3450,4650 4950,4650"
	stroke="#000000" stroke-width="15px" stroke-dasharray="10 60"/>
<!-- Text -->
<!--  METADATA <id>5</id>  -->
<text xml:space="preserve" x="3050" y="4175" fill="#000000" font-family="Times" font-style="normal" font-weight="normal" font-size="360" text-anchor="start">b</text>
<!-- Text -->
<!--  METADATA <id>2</id>  -->
<text xml:space="preserve" x="3050" y="3575" fill="#000000" font-family="Times" font-style="normal" font-weight="normal" font-size="360" text-anchor="start">a</text>
<!-- Line -->
<!--  METADATA <id>13</id>  -->
<polyline points=" 3950,3750 4950,3750"
	stroke="#000000" stroke-width="30px"/>
<!-- Line -->
<!--  METADATA <id>3</id>  -->
<polyline points=" 3450,3450 4950,3450"
	stroke="#000000" stroke-width="15px" stroke-dasharray="10 60"/>
<!-- Line -->
<!--  METADATA <id>4</id>  -->
<polyline points=" 6450,3450 8450,3450"
	stroke="#000000" stroke-width="15px" stroke-dasharray="10 60"/>
<!-- Line -->
<!--  METADATA <id>6</id>  -->
<polyline points=" 3450,4050 8450,4050"
	stroke="#000000" stroke-width="15px" stroke-dasharray="10 60"/>
<!-- Text -->
<!--  METADATA <id>7</id>  -->
<text xml:space="preserve" x="3050" y="4775" fill="#000000" font-family="Times" font-style="normal" font-weight="normal" font-size="360" text-anchor="start">c</text>
<!-- Line -->
<!--  METADATA <id>9</id>  -->
<polyline points=" 6450,4650 8450,4650"
	stroke="#000000" stroke-width="15px" stroke-dasharray="10 60"/>
<!-- Line -->
<!--  METADATA <id>12</id>  -->
<polyline points=" 3950,3450 3950,3452 3950,3456 3950,3464 3950,3475 3950,3489 3950,3506 3950,3525
 3950,3546 3950,3568 3950,3592 3950,3618 3950,3647 3950,3678 3950,3713 3950,3750
 3950,3787 3950,3822 3950,3853 3950,3882 3950,3908 3950,3932 3950,3954 3950,3975
 3950,3994 3950,4011 3950,4025 3950,4036 3950,4044 3950,4048 3950,4050"
	stroke="#000000" stroke-width="30px" stroke-linejoin="bevel"/>
<!-- Circle -->
<!--  METADATA <id>14</id>  -->
<circle cx="3950" cy="4050" r="45" fill="#000000"
	stroke="#000000" stroke-width="30px"/>
<!-- Circle -->
<!--  METADATA <id>11</id>  -->
<circle cx="3950" cy="4050" r="45" fill="#000000"
	stroke="#000000" stroke-width="30px"/>
<!-- Circle -->
<!--  METADATA <id>10</id>  -->
<circle cx="3950" cy="3450" r="45" fill="#000000"
	stroke="#000000" stroke-width="30px"/>
<!-- Circle -->
<!--  METADATA <id>15</id>  -->
<circle cx="3950" cy="4650" r="45" fill="#000000"
	stroke="#000000" stroke-width="30px"/>
</g>
</svg>
