<?xml version="1.0" standalone="no"?>
<!-- Creator: fig2dev Version 3.2.6a WinFIG version 3 (2018-06-22) by Andreas Schmidt -->
<!-- CreationDate: 2019-06-10 01:21:38 -->
<!-- Magnification: 1 -->
<svg	xmlns="http://www.w3.org/2000/svg"
	xmlns:xlink="http://www.w3.org/1999/xlink"
	width="792pt" height="612pt"
	viewBox="3135 3982 5337 1833">
<g fill="none">
<!-- Line -->
<polyline points=" 5950,5550 5950,5580"
	stroke="#000000" stroke-width="8px"/>
<!-- Text -->
<text xml:space="preserve" x="7450" y="5800" fill="#000000" font-family="Times" font-style="normal" font-weight="normal" font-size="240" text-anchor="middle">8</text>
<!-- Text -->
<text xml:space="preserve" x="6950" y="5800" fill="#000000" font-family="Times" font-style="normal" font-weight="normal" font-size="240" text-anchor="middle">7</text>
<!-- Text -->
<text xml:space="preserve" x="6450" y="5800" fill="#000000" font-family="Times" font-style="normal" font-weight="normal" font-size="240" text-anchor="middle">6</text>
<!-- Line -->
<polyline points=" 3450,4050 8450,4050"
	stroke="#000000" stroke-width="15px" stroke-dasharray="10 60"/>
<!-- Line -->
<polyline points=" 3450,4650 7450,4650"
	stroke="#000000" stroke-width="15px" stroke-dasharray="10 60"/>
<!-- Line -->
<polyline points=" 5450,5250 8450,5250"
	stroke="#000000" stroke-width="15px" stroke-dasharray="10 60"/>
<!-- Line -->
<polyline points=" 4450,4050 4450,4052 4450,4056 4450,4064 4450,4075 4450,4089 4450,4106 4450,4125
 4450,4146 4450,4168 4450,4192 4450,4218 4450,4247 4450,4278 4450,4313 4450,4350
 4450,4387 4450,4422 4450,4453 4450,4482 4450,4508 4450,4532 4450,4554 4450,4575
 4450,4594 4450,4611 4450,4625 4450,4636 4450,4644 4450,4648 4450,4650"
	stroke="#000000" stroke-width="30px" stroke-linejoin="bevel"/>
<!-- Line -->
<polyline points=" 4450,4350 6450,4350"
	stroke="#000000" stroke-width="30px"/>
<!-- Line -->
<polyline points=" 5450,4650 5450,4652 5450,4656 5450,4664 5450,4675 5450,4689 5450,4706 5450,4725
 5450,4746 5450,4768 5450,4792 5450,4818 5450,4847 5450,4878 5450,4913 5450,4950
 5450,4987 5450,5022 5450,5053 5450,5082 5450,5108 5450,5132 5450,5154 5450,5175
 5450,5194 5450,5211 5450,5225 5450,5236 5450,5244 5450,5248 5450,5250"
	stroke="#000000" stroke-width="30px" stroke-linejoin="bevel"/>
<!-- Line -->
<polyline points=" 5450,4950 7450,4950"
	stroke="#000000" stroke-width="30px"/>
<!-- Line -->
<defs>
<clipPath id="cp0">
	<path clip-rule="evenodd" d="M 3135,3982 H 8472 V 5815 H 3135 z
		M 8314,5520 8314,5580 8457,5557 8457,5543z"/>
</clipPath>
</defs>
<polyline points=" 3450,5550 8450,5550" clip-path="url(#cp0)"
	stroke="#000000" stroke-width="8px"/>
<!-- Forward arrow to point 8450,5550 -->
<polygon points=" 8314,5580 8434,5550 8314,5520 8314,5580"
	stroke="#000000" stroke-width="8px" stroke-miterlimit="8" fill="#000000"/>
<!-- Line -->
<polyline points=" 3450,5550 3450,5580"
	stroke="#000000" stroke-width="8px"/>
<!-- Line -->
<polyline points=" 3950,5550 3950,5580"
	stroke="#000000" stroke-width="8px"/>
<!-- Line -->
<polyline points=" 4450,5550 4450,5580"
	stroke="#000000" stroke-width="8px"/>
<!-- Line -->
<polyline points=" 4950,5550 4950,5580"
	stroke="#000000" stroke-width="8px"/>
<!-- Line -->
<polyline points=" 5450,5550 5450,5580"
	stroke="#000000" stroke-width="8px"/>
<!-- Text -->
<text xml:space="preserve" x="8450" y="5800" fill="#000000" font-family="Times" font-style="normal" font-weight="normal" font-size="240" text-anchor="end">time</text>
<!-- Line -->
<polyline points=" 6450,5550 6450,5580"
	stroke="#000000" stroke-width="8px"/>
<!-- Line -->
<polyline points=" 6950,5550 6950,5580"
	stroke="#000000" stroke-width="8px"/>
<!-- Line -->
<polyline points=" 7450,5550 7450,5580"
	stroke="#000000" stroke-width="8px"/>
<!-- Line -->
<polyline points=" 7950,5550 7950,5580"
	stroke="#000000" stroke-width="8px"/>
<!-- Text -->
<text xml:space="preserve" x="3250" y="4175" fill="#000000" font-family="Times" font-style="normal" font-weight="normal" font-size="120" text-anchor="start">MB</text>
<!-- Text -->
<text xml:space="preserve" x="3150" y="4775" fill="#000000" font-family="Times" font-style="normal" font-weight="normal" font-size="120" text-anchor="start">YYA</text>
<!-- Text -->
<text xml:space="preserve" x="3150" y="5375" fill="#000000" font-family="Times" font-style="normal" font-weight="normal" font-size="120" text-anchor="start">MAP</text>
<!-- Text -->
<text xml:space="preserve" x="3450" y="5800" fill="#000000" font-family="Times" font-style="normal" font-weight="normal" font-size="240" text-anchor="middle">0</text>
<!-- Text -->
<text xml:space="preserve" x="3950" y="5800" fill="#000000" font-family="Times" font-style="normal" font-weight="normal" font-size="240" text-anchor="middle">1</text>
<!-- Text -->
<text xml:space="preserve" x="4450" y="5800" fill="#000000" font-family="Times" font-style="normal" font-weight="normal" font-size="240" text-anchor="middle">2</text>
<!-- Text -->
<text xml:space="preserve" x="4950" y="5800" fill="#000000" font-family="Times" font-style="normal" font-weight="normal" font-size="240" text-anchor="middle">3</text>
<!-- Text -->
<text xml:space="preserve" x="5450" y="5800" fill="#000000" font-family="Times" font-style="normal" font-weight="normal" font-size="240" text-anchor="middle">4</text>
<!-- Text -->
<text xml:space="preserve" x="5950" y="5800" fill="#000000" font-family="Times" font-style="normal" font-weight="normal" font-size="240" text-anchor="middle">5</text>
<!-- Circle -->
<circle cx="5450" cy="4650" r="45" fill="#000000"
	stroke="#000000" stroke-width="30px"/>
<!-- Circle -->
<circle cx="4450" cy="4650" r="45" fill="#000000"
	stroke="#000000" stroke-width="30px"/>
<!-- Circle -->
<circle cx="4450" cy="4050" r="45" fill="#000000"
	stroke="#000000" stroke-width="30px"/>
<!-- Circle -->
<circle cx="5450" cy="5250" r="45" fill="#000000"
	stroke="#000000" stroke-width="30px"/>
</g>
</svg>
