<?xml version="1.0" standalone="no"?>
<!-- Creator: fig2dev Version 3.2.6a WinFIG version 3 (2018-06-22) by Andreas Schmidt -->
<!-- CreationDate: 2019-06-18 13:26:22 -->
<!-- Magnification: 1 -->
<svg	xmlns="http://www.w3.org/2000/svg"
	xmlns:xlink="http://www.w3.org/1999/xlink"
	width="792pt" height="612pt"
	viewBox="735 4052 7737 5963">
<g fill="none">
<!-- Line -->
<polyline points=" 4450,9150 6450,9150"
	stroke="#00d100" stroke-width="30px"/>
<!-- Text -->
<text xml:space="preserve" x="7450" y="10000" fill="#000000" font-family="Times" font-style="normal" font-weight="normal" font-size="240" text-anchor="middle">8</text>
<!-- Text -->
<text xml:space="preserve" x="6950" y="10000" fill="#000000" font-family="Times" font-style="normal" font-weight="normal" font-size="240" text-anchor="middle">7</text>
<!-- Text -->
<text xml:space="preserve" x="6450" y="10000" fill="#000000" font-family="Times" font-style="normal" font-weight="normal" font-size="240" text-anchor="middle">6</text>
<!-- Text -->
<text xml:space="preserve" x="5950" y="10000" fill="#000000" font-family="Times" font-style="normal" font-weight="normal" font-size="240" text-anchor="middle">5</text>
<!-- Text -->
<text xml:space="preserve" x="5450" y="10000" fill="#000000" font-family="Times" font-style="normal" font-weight="normal" font-size="240" text-anchor="middle">4</text>
<!-- Text -->
<text xml:space="preserve" x="4950" y="10000" fill="#000000" font-family="Times" font-style="normal" font-weight="normal" font-size="240" text-anchor="middle">3</text>
<!-- Text -->
<text xml:space="preserve" x="4450" y="10000" fill="#000000" font-family="Times" font-style="normal" font-weight="normal" font-size="240" text-anchor="middle">2</text>
<!-- Text -->
<text xml:space="preserve" x="3950" y="10000" fill="#000000" font-family="Times" font-style="normal" font-weight="normal" font-size="240" text-anchor="middle">1</text>
<!-- Text -->
<text xml:space="preserve" x="3450" y="10000" fill="#000000" font-family="Times" font-style="normal" font-weight="normal" font-size="240" text-anchor="middle">0</text>
<!-- Line -->
<polyline points=" 5450,4650 5950,4650"
	stroke="#000000" stroke-width="15px" stroke-dasharray="10 60"/>
<!-- Line -->
<polyline points=" 6950,4650 7450,4650"
	stroke="#000000" stroke-width="15px" stroke-dasharray="10 60"/>
<!-- Line -->
<polyline points=" 3450,5250 8450,5250"
	stroke="#000000" stroke-width="15px" stroke-dasharray="10 60"/>
<!-- Line -->
<polyline points=" 4950,5850 7450,5850"
	stroke="#000000" stroke-width="15px" stroke-dasharray="10 60"/>
<!-- Line -->
<polyline points=" 3450,6450"
	stroke="#000000" stroke-width="15px" stroke-dasharray="10 60"/>
<!-- Line -->
<polyline points=" 5450,7650 8450,7650"
	stroke="#000000" stroke-width="15px" stroke-dasharray="10 60"/>
<!-- Line -->
<polyline points=" 3450,8250"
	stroke="#000000" stroke-width="15px" stroke-dasharray="10 60"/>
<!-- Line -->
<polyline points=" 3450,8850 7450,8850"
	stroke="#000000" stroke-width="15px" stroke-dasharray="10 60"/>
<!-- Line -->
<polyline points=" 3450,9450 8450,9450"
	stroke="#000000" stroke-width="15px" stroke-dasharray="10 60"/>
<!-- Line -->
<polyline points=" 5450,4650 5450,4652 5450,4656 5450,4664 5450,4675 5450,4689 5450,4706 5450,4725
 5450,4746 5450,4768 5450,4792 5450,4818 5450,4847 5450,4878 5450,4913 5450,4950
 5450,4987 5450,5022 5450,5053 5450,5082 5450,5108 5450,5132 5450,5154 5450,5175
 5450,5194 5450,5211 5450,5225 5450,5236 5450,5244 5450,5248 5450,5250"
	stroke="#ffa1a1" stroke-width="30px" stroke-linejoin="bevel"/>
<!-- Line -->
<polyline points=" 5450,4950 5950,4950"
	stroke="#ffa1a1" stroke-width="30px"/>
<!-- Line -->
<polyline points=" 6950,4650 6950,4652 6950,4656 6950,4664 6950,4675 6950,4689 6950,4706 6950,4725
 6950,4746 6950,4768 6950,4792 6950,4818 6950,4847 6950,4878 6950,4913 6950,4950
 6950,4987 6950,5022 6950,5053 6950,5082 6950,5108 6950,5132 6950,5154 6950,5175
 6950,5194 6950,5211 6950,5225 6950,5236 6950,5244 6950,5248 6950,5250"
	stroke="#ffa1a1" stroke-width="30px" stroke-linejoin="bevel"/>
<!-- Line -->
<polyline points=" 6950,4950 7450,4950"
	stroke="#ffa1a1" stroke-width="30px"/>
<!-- Line -->
<defs>
<clipPath id="cp0">
	<path clip-rule="evenodd" d="M 735,4052 H 8472 V 10015 H 735 z
		M 8314,9720 8314,9780 8457,9757 8457,9743z"/>
</clipPath>
</defs>
<polyline points=" 3450,9750 8450,9750" clip-path="url(#cp0)"
	stroke="#000000" stroke-width="8px"/>
<!-- Forward arrow to point 8450,9750 -->
<polygon points=" 8314,9780 8434,9750 8314,9720 8314,9780"
	stroke="#000000" stroke-width="8px" stroke-miterlimit="8" fill="#000000"/>
<!-- Line -->
<polyline points=" 3450,9750 3450,9780"
	stroke="#000000" stroke-width="8px"/>
<!-- Line -->
<polyline points=" 3950,9750 3950,9780"
	stroke="#000000" stroke-width="8px"/>
<!-- Line -->
<polyline points=" 4450,9750 4450,9780"
	stroke="#000000" stroke-width="8px"/>
<!-- Line -->
<polyline points=" 4950,9750 4950,9780"
	stroke="#000000" stroke-width="8px"/>
<!-- Line -->
<polyline points=" 5450,9750 5450,9780"
	stroke="#000000" stroke-width="8px"/>
<!-- Line -->
<polyline points=" 5950,9750 5950,9780"
	stroke="#000000" stroke-width="8px"/>
<!-- Line -->
<polyline points=" 6450,9750 6450,9780"
	stroke="#000000" stroke-width="8px"/>
<!-- Line -->
<polyline points=" 6950,9750 6950,9780"
	stroke="#000000" stroke-width="8px"/>
<!-- Line -->
<polyline points=" 7450,9750 7450,9780"
	stroke="#000000" stroke-width="8px"/>
<!-- Line -->
<polyline points=" 7950,9750 7950,9780"
	stroke="#000000" stroke-width="8px"/>
<!-- Line -->
<polyline points=" 5450,7650 5450,7651 5450,7653 5450,7657 5450,7664 5450,7673 5450,7685 5450,7700
 5450,7718 5450,7738 5450,7761 5450,7787 5450,7814 5450,7844 5450,7875 5450,7908
 5450,7942 5450,7977 5450,8013 5450,8052 5450,8091 5450,8133 5450,8176 5450,8222
 5450,8271 5450,8322 5450,8375 5450,8432 5450,8490 5450,8550 5450,8610 5450,8668
 5450,8725 5450,8778 5450,8829 5450,8878 5450,8924 5450,8967 5450,9009 5450,9048
 5450,9087 5450,9123 5450,9158 5450,9192 5450,9225 5450,9256 5450,9286 5450,9313
 5450,9339 5450,9362 5450,9382 5450,9400 5450,9415 5450,9427 5450,9436 5450,9443
 5450,9447 5450,9449 5450,9450"
	stroke="#00d100" stroke-width="30px" stroke-linejoin="bevel"/>
<!-- Line -->
<polyline points=" 5450,8550 7450,8550"
	stroke="#00d100" stroke-width="30px"/>
<!-- Line -->
<defs>
<clipPath id="cp1">
	<path clip-rule="evenodd" d="M 735,4052 H 8472 V 10015 H 735 z
		M 8314,9720 8314,9780 8457,9757 8457,9743z"/>
</clipPath>
</defs>
<polyline points=" 3450,9750 8450,9750" clip-path="url(#cp1)"
	stroke="#000000" stroke-width="8px"/>
<!-- Forward arrow to point 8450,9750 -->
<polygon points=" 8314,9780 8434,9750 8314,9720 8314,9780"
	stroke="#000000" stroke-width="8px" stroke-miterlimit="8" fill="#000000"/>
<!-- Line -->
<polyline points=" 3450,9750 3450,9780"
	stroke="#000000" stroke-width="8px"/>
<!-- Line -->
<polyline points=" 3950,9750 3950,9780"
	stroke="#000000" stroke-width="8px"/>
<!-- Line -->
<polyline points=" 4450,9750 4450,9780"
	stroke="#000000" stroke-width="8px"/>
<!-- Line -->
<polyline points=" 4950,9750 4950,9780"
	stroke="#000000" stroke-width="8px"/>
<!-- Line -->
<polyline points=" 5450,9750 5450,9780"
	stroke="#000000" stroke-width="8px"/>
<!-- Line -->
<polyline points=" 5950,9750 5950,9780"
	stroke="#000000" stroke-width="8px"/>
<!-- Line -->
<polyline points=" 6450,9750 6450,9780"
	stroke="#000000" stroke-width="8px"/>
<!-- Line -->
<polyline points=" 6950,9750 6950,9780"
	stroke="#000000" stroke-width="8px"/>
<!-- Line -->
<polyline points=" 7450,9750 7450,9780"
	stroke="#000000" stroke-width="8px"/>
<!-- Line -->
<polyline points=" 7950,9750 7950,9780"
	stroke="#000000" stroke-width="8px"/>
<!-- Line -->
<polyline points=" 5950,5250 5950,5252 5950,5256 5950,5264 5950,5275 5950,5289 5950,5306 5950,5325
 5950,5346 5950,5368 5950,5392 5950,5418 5950,5447 5950,5478 5950,5513 5950,5550
 5950,5587 5950,5622 5950,5653 5950,5682 5950,5708 5950,5732 5950,5754 5950,5775
 5950,5794 5950,5811 5950,5825 5950,5836 5950,5844 5950,5848 5950,5850"
	stroke="#ffa1a1" stroke-width="30px" stroke-linejoin="bevel"/>
<!-- Line -->
<polyline points=" 5950,5550 7450,5550"
	stroke="#ffa1a1" stroke-width="30px"/>
<!-- Line -->
<defs>
<clipPath id="cp2">
	<path clip-rule="evenodd" d="M 735,4052 H 8472 V 10015 H 735 z
		M 8314,9720 8314,9780 8457,9757 8457,9743z"/>
</clipPath>
</defs>
<polyline points=" 3450,9750 8450,9750" clip-path="url(#cp2)"
	stroke="#000000" stroke-width="8px"/>
<!-- Forward arrow to point 8450,9750 -->
<polygon points=" 8314,9780 8434,9750 8314,9720 8314,9780"
	stroke="#000000" stroke-width="8px" stroke-miterlimit="8" fill="#000000"/>
<!-- Line -->
<polyline points=" 3450,9750 3450,9780"
	stroke="#000000" stroke-width="8px"/>
<!-- Line -->
<polyline points=" 3950,9750 3950,9780"
	stroke="#000000" stroke-width="8px"/>
<!-- Line -->
<polyline points=" 4450,9750 4450,9780"
	stroke="#000000" stroke-width="8px"/>
<!-- Line -->
<polyline points=" 4950,9750 4950,9780"
	stroke="#000000" stroke-width="8px"/>
<!-- Line -->
<polyline points=" 5450,9750 5450,9780"
	stroke="#000000" stroke-width="8px"/>
<!-- Line -->
<polyline points=" 5950,9750 5950,9780"
	stroke="#000000" stroke-width="8px"/>
<!-- Line -->
<polyline points=" 6450,9750 6450,9780"
	stroke="#000000" stroke-width="8px"/>
<!-- Line -->
<polyline points=" 6950,9750 6950,9780"
	stroke="#000000" stroke-width="8px"/>
<!-- Line -->
<polyline points=" 7450,9750 7450,9780"
	stroke="#000000" stroke-width="8px"/>
<!-- Line -->
<polyline points=" 7950,9750 7950,9780"
	stroke="#000000" stroke-width="8px"/>
<!-- Line -->
<polyline points=" 4450,8850 4450,8852 4450,8856 4450,8864 4450,8875 4450,8889 4450,8906 4450,8925
 4450,8946 4450,8968 4450,8992 4450,9018 4450,9047 4450,9078 4450,9113 4450,9150
 4450,9187 4450,9222 4450,9253 4450,9282 4450,9308 4450,9332 4450,9354 4450,9375
 4450,9394 4450,9411 4450,9425 4450,9436 4450,9444 4450,9448 4450,9450"
	stroke="#00d100" stroke-width="30px" stroke-linejoin="bevel"/>
<!-- Text -->
<text xml:space="preserve" x="8450" y="10000" fill="#000000" font-family="Times" font-style="normal" font-weight="normal" font-size="240" text-anchor="end">time</text>
<!-- Line -->
<defs>
<clipPath id="cp3">
	<path clip-rule="evenodd" d="M 735,4052 H 8472 V 10015 H 735 z
		M 8314,9720 8314,9780 8457,9757 8457,9743z"/>
</clipPath>
</defs>
<polyline points=" 3450,9750 8450,9750" clip-path="url(#cp3)"
	stroke="#000000" stroke-width="8px"/>
<!-- Forward arrow to point 8450,9750 -->
<polygon points=" 8314,9780 8434,9750 8314,9720 8314,9780"
	stroke="#000000" stroke-width="8px" stroke-miterlimit="8" fill="#000000"/>
<!-- Line -->
<polyline points=" 3450,9750 3450,9780"
	stroke="#000000" stroke-width="8px"/>
<!-- Line -->
<polyline points=" 3950,9750 3950,9780"
	stroke="#000000" stroke-width="8px"/>
<!-- Line -->
<polyline points=" 4450,9750 4450,9780"
	stroke="#000000" stroke-width="8px"/>
<!-- Line -->
<polyline points=" 4950,9750 4950,9780"
	stroke="#000000" stroke-width="8px"/>
<!-- Line -->
<polyline points=" 5450,9750 5450,9780"
	stroke="#000000" stroke-width="8px"/>
<!-- Line -->
<polyline points=" 5950,9750 5950,9780"
	stroke="#000000" stroke-width="8px"/>
<!-- Line -->
<polyline points=" 6450,9750 6450,9780"
	stroke="#000000" stroke-width="8px"/>
<!-- Line -->
<polyline points=" 6950,9750 6950,9780"
	stroke="#000000" stroke-width="8px"/>
<!-- Line -->
<polyline points=" 7450,9750 7450,9780"
	stroke="#000000" stroke-width="8px"/>
<!-- Line -->
<polyline points=" 7950,9750 7950,9780"
	stroke="#000000" stroke-width="8px"/>
<!-- Text -->
<text xml:space="preserve" x="3350" y="4775" fill="#000000" font-family="Times" font-style="normal" font-weight="normal" font-size="120" text-anchor="start">A</text>
<!-- Text -->
<text xml:space="preserve" x="850" y="4175" fill="#000000" font-family="Times" font-style="normal" font-weight="normal" font-size="120" text-anchor="start">['foret', 'Collaboration']</text>
<!-- Text -->
<text xml:space="preserve" x="3350" y="5375" fill="#000000" font-family="Times" font-style="normal" font-weight="normal" font-size="120" text-anchor="start">B</text>
<!-- Text -->
<text xml:space="preserve" x="3350" y="5975" fill="#000000" font-family="Times" font-style="normal" font-weight="normal" font-size="120" text-anchor="start">C</text>
<!-- Text -->
<text xml:space="preserve" x="3350" y="6575" fill="#000000" font-family="Times" font-style="normal" font-weight="normal" font-size="120" text-anchor="start">D</text>
<!-- Text -->
<text xml:space="preserve" x="3350" y="7775" fill="#000000" font-family="Times" font-style="normal" font-weight="normal" font-size="120" text-anchor="start">A</text>
<!-- Text -->
<text xml:space="preserve" x="750" y="7175" fill="#000000" font-family="Times" font-style="normal" font-weight="normal" font-size="120" text-anchor="start">['plaine', 'Collaboration']</text>
<!-- Text -->
<text xml:space="preserve" x="3350" y="8375" fill="#000000" font-family="Times" font-style="normal" font-weight="normal" font-size="120" text-anchor="start">B</text>
<!-- Text -->
<text xml:space="preserve" x="3350" y="8975" fill="#000000" font-family="Times" font-style="normal" font-weight="normal" font-size="120" text-anchor="start">C</text>
<!-- Text -->
<text xml:space="preserve" x="3350" y="9575" fill="#000000" font-family="Times" font-style="normal" font-weight="normal" font-size="120" text-anchor="start">D</text>
<!-- Text -->
<text xml:space="preserve" x="3450" y="10000" fill="#000000" font-family="Times" font-style="normal" font-weight="normal" font-size="240" text-anchor="middle">0</text>
<!-- Text -->
<text xml:space="preserve" x="3950" y="10000" fill="#000000" font-family="Times" font-style="normal" font-weight="normal" font-size="240" text-anchor="middle">1</text>
<!-- Text -->
<text xml:space="preserve" x="4450" y="10000" fill="#000000" font-family="Times" font-style="normal" font-weight="normal" font-size="240" text-anchor="middle">2</text>
<!-- Text -->
<text xml:space="preserve" x="4950" y="10000" fill="#000000" font-family="Times" font-style="normal" font-weight="normal" font-size="240" text-anchor="middle">3</text>
<!-- Text -->
<text xml:space="preserve" x="5450" y="10000" fill="#000000" font-family="Times" font-style="normal" font-weight="normal" font-size="240" text-anchor="middle">4</text>
<!-- Text -->
<text xml:space="preserve" x="5950" y="10000" fill="#000000" font-family="Times" font-style="normal" font-weight="normal" font-size="240" text-anchor="middle">5</text>
<!-- Text -->
<text xml:space="preserve" x="6450" y="10000" fill="#000000" font-family="Times" font-style="normal" font-weight="normal" font-size="240" text-anchor="middle">6</text>
<!-- Text -->
<text xml:space="preserve" x="6950" y="10000" fill="#000000" font-family="Times" font-style="normal" font-weight="normal" font-size="240" text-anchor="middle">7</text>
<!-- Text -->
<text xml:space="preserve" x="7450" y="10000" fill="#000000" font-family="Times" font-style="normal" font-weight="normal" font-size="240" text-anchor="middle">8</text>
<!-- Text -->
<text xml:space="preserve" x="8450" y="10000" fill="#000000" font-family="Times" font-style="normal" font-weight="normal" font-size="240" text-anchor="end">time</text>
<!-- Text -->
<text xml:space="preserve" x="3450" y="10000" fill="#000000" font-family="Times" font-style="normal" font-weight="normal" font-size="240" text-anchor="middle">0</text>
<!-- Text -->
<text xml:space="preserve" x="3950" y="10000" fill="#000000" font-family="Times" font-style="normal" font-weight="normal" font-size="240" text-anchor="middle">1</text>
<!-- Text -->
<text xml:space="preserve" x="4450" y="10000" fill="#000000" font-family="Times" font-style="normal" font-weight="normal" font-size="240" text-anchor="middle">2</text>
<!-- Text -->
<text xml:space="preserve" x="4950" y="10000" fill="#000000" font-family="Times" font-style="normal" font-weight="normal" font-size="240" text-anchor="middle">3</text>
<!-- Text -->
<text xml:space="preserve" x="5450" y="10000" fill="#000000" font-family="Times" font-style="normal" font-weight="normal" font-size="240" text-anchor="middle">4</text>
<!-- Text -->
<text xml:space="preserve" x="5950" y="10000" fill="#000000" font-family="Times" font-style="normal" font-weight="normal" font-size="240" text-anchor="middle">5</text>
<!-- Text -->
<text xml:space="preserve" x="6450" y="10000" fill="#000000" font-family="Times" font-style="normal" font-weight="normal" font-size="240" text-anchor="middle">6</text>
<!-- Text -->
<text xml:space="preserve" x="6950" y="10000" fill="#000000" font-family="Times" font-style="normal" font-weight="normal" font-size="240" text-anchor="middle">7</text>
<!-- Text -->
<text xml:space="preserve" x="7450" y="10000" fill="#000000" font-family="Times" font-style="normal" font-weight="normal" font-size="240" text-anchor="middle">8</text>
<!-- Text -->
<text xml:space="preserve" x="8450" y="10000" fill="#000000" font-family="Times" font-style="normal" font-weight="normal" font-size="240" text-anchor="end">time</text>
<!-- Text -->
<text xml:space="preserve" x="3450" y="10000" fill="#000000" font-family="Times" font-style="normal" font-weight="normal" font-size="240" text-anchor="middle">0</text>
<!-- Text -->
<text xml:space="preserve" x="3950" y="10000" fill="#000000" font-family="Times" font-style="normal" font-weight="normal" font-size="240" text-anchor="middle">1</text>
<!-- Text -->
<text xml:space="preserve" x="4450" y="10000" fill="#000000" font-family="Times" font-style="normal" font-weight="normal" font-size="240" text-anchor="middle">2</text>
<!-- Text -->
<text xml:space="preserve" x="4950" y="10000" fill="#000000" font-family="Times" font-style="normal" font-weight="normal" font-size="240" text-anchor="middle">3</text>
<!-- Text -->
<text xml:space="preserve" x="5450" y="10000" fill="#000000" font-family="Times" font-style="normal" font-weight="normal" font-size="240" text-anchor="middle">4</text>
<!-- Text -->
<text xml:space="preserve" x="5950" y="10000" fill="#000000" font-family="Times" font-style="normal" font-weight="normal" font-size="240" text-anchor="middle">5</text>
<!-- Text -->
<text xml:space="preserve" x="6450" y="10000" fill="#000000" font-family="Times" font-style="normal" font-weight="normal" font-size="240" text-anchor="middle">6</text>
<!-- Text -->
<text xml:space="preserve" x="6950" y="10000" fill="#000000" font-family="Times" font-style="normal" font-weight="normal" font-size="240" text-anchor="middle">7</text>
<!-- Text -->
<text xml:space="preserve" x="7450" y="10000" fill="#000000" font-family="Times" font-style="normal" font-weight="normal" font-size="240" text-anchor="middle">8</text>
<!-- Text -->
<text xml:space="preserve" x="8450" y="10000" fill="#000000" font-family="Times" font-style="normal" font-weight="normal" font-size="240" text-anchor="end">time</text>
<!-- Circle -->
<circle cx="4450" cy="9450" r="45" fill="#00d100"
	stroke="#00d100" stroke-width="30px"/>
<!-- Circle -->
<circle cx="4450" cy="8850" r="45" fill="#00d100"
	stroke="#00d100" stroke-width="30px"/>
<!-- Circle -->
<circle cx="5950" cy="5850" r="45" fill="#ffa1a1"
	stroke="#ffa1a1" stroke-width="30px"/>
<!-- Circle -->
<circle cx="5950" cy="5250" r="45" fill="#ffa1a1"
	stroke="#ffa1a1" stroke-width="30px"/>
<!-- Circle -->
<circle cx="5450" cy="9450" r="45" fill="#00d100"
	stroke="#00d100" stroke-width="30px"/>
<!-- Circle -->
<circle cx="5450" cy="7650" r="45" fill="#00d100"
	stroke="#00d100" stroke-width="30px"/>
<!-- Circle -->
<circle cx="6950" cy="5250" r="45" fill="#ffa1a1"
	stroke="#ffa1a1" stroke-width="30px"/>
<!-- Circle -->
<circle cx="6950" cy="4650" r="45" fill="#ffa1a1"
	stroke="#ffa1a1" stroke-width="30px"/>
<!-- Circle -->
<circle cx="5450" cy="5250" r="45" fill="#ffa1a1"
	stroke="#ffa1a1" stroke-width="30px"/>
<!-- Circle -->
<circle cx="5450" cy="4650" r="45" fill="#ffa1a1"
	stroke="#ffa1a1" stroke-width="30px"/>
</g>
</svg>
